<svg width="76" height="78" viewBox="0 0 76 78" fill="none" xmlns="http://www.w3.org/2000/svg">
<g filter="url(#filter0_d_54_1053)">
<circle cx="38" cy="28" r="28" fill="#4D337F" fill-opacity="0.5"/>
<circle cx="38" cy="28" r="22" fill="#644696"/>
</g>
<path d="M39.6711 41C38.86 41 38.0447 41 37.2335 41C37.2335 39.6996 37.2335 38.4033 37.2335 37.0655C36.6115 37.0655 36.0105 37.0655 35.4137 37.0655C35.2708 37.0655 35.3002 37.1818 35.3002 37.2649C35.3002 38.5113 35.3002 39.7577 35.3002 41C34.4891 41 33.6738 41 32.8626 41C32.8626 39.6747 32.8626 38.3493 32.8626 36.9949C31.2235 36.9949 29.6139 36.9949 28.0168 36.9949C28.0042 36.9533 28 36.9367 28 36.9284C28.1513 36.0435 28.3026 35.1544 28.4497 34.2694C28.4707 34.1365 28.5506 34.1448 28.643 34.1448C29.139 34.1448 29.6391 34.1448 30.135 34.1448C30.8201 34.1406 31.1437 33.8124 31.1437 33.131C31.1437 29.6826 31.1437 26.2343 31.1437 22.79C31.1437 22.0422 30.6814 21.5519 29.9249 21.5104C29.5256 21.4896 29.1263 21.4896 28.7271 21.4855C28.4833 21.4813 28.2438 21.4855 28 21.4855C28 20.6254 28 19.7903 28 18.9303C29.6265 18.9303 31.2403 18.9303 32.8626 18.9303C32.8626 17.6008 32.8626 16.3004 32.8626 15C33.6738 15 34.4891 15 35.3002 15C35.3002 16.2256 35.3002 17.4513 35.2918 18.6769C35.2918 18.8223 35.3381 18.868 35.4852 18.8639C35.9054 18.8472 36.3257 18.8472 36.746 18.8431C36.9015 18.8431 37.0612 18.8431 37.2335 18.8431C37.2335 17.5344 37.2335 16.2672 37.2335 15C38.0447 15 38.86 15 39.6711 15C39.6669 15.0831 39.6627 15.1662 39.6627 15.2493C39.6627 16.3586 39.6627 17.4637 39.6627 18.573C39.6627 18.9553 39.6627 18.9511 40.0578 18.9926C41.1379 19.109 42.2012 19.3001 43.2015 19.7613C44.1429 20.1934 44.8784 20.8249 45.265 21.8054C45.5424 22.5117 45.6097 23.2429 45.555 23.9866C45.4626 25.2579 44.8658 26.226 43.752 26.8741C43.6764 26.9198 43.6007 26.9613 43.4957 27.0195C43.5629 27.0527 43.5923 27.0652 43.626 27.0777C44.042 27.2314 44.4791 27.3519 44.8784 27.5513C45.8492 28.0374 46.5469 28.7686 46.8201 29.8405C47.0975 30.9124 47.0344 31.9843 46.7654 33.0438C46.5301 33.962 46.0888 34.768 45.3491 35.3912C44.5127 36.0975 43.5083 36.4714 42.4534 36.6791C41.6128 36.8412 40.7513 36.9076 39.8939 36.999C39.709 37.0198 39.6585 37.078 39.6627 37.2525C39.6753 37.5724 39.6669 37.8881 39.6669 38.2081C39.6669 39.1304 39.6669 40.0652 39.6711 41ZM35.3465 34.1448C36.0988 34.1448 36.8132 34.1614 37.5235 34.1406C38.4902 34.1115 39.4526 34.0077 40.3688 33.6753C40.9446 33.4676 41.4909 33.1892 41.8188 32.6449C42.4618 31.5855 42.1256 30.2435 41.0454 29.6162C40.2595 29.1592 39.3853 28.9556 38.4817 28.914C37.5235 28.8725 36.5653 28.8849 35.607 28.86C35.3969 28.8559 35.3381 28.914 35.3381 29.1259C35.3465 30.7172 35.3423 32.3084 35.3423 33.8996C35.3465 33.9744 35.3465 34.0492 35.3465 34.1448ZM35.3507 24.0489C35.3507 24.7884 35.3507 25.5321 35.3507 26.2717C35.3507 26.388 35.3549 26.4669 35.5146 26.4711C36.7418 26.4918 37.9648 26.4877 39.1626 26.1719C39.7846 26.0058 40.3268 25.7066 40.705 25.1956C41.2808 24.4145 41.0875 23.1224 40.3268 22.495C39.709 21.9882 38.9567 21.7929 38.1876 21.7306C37.3092 21.66 36.4266 21.6807 35.544 21.6516C35.3717 21.6475 35.3507 21.7264 35.3507 21.8677C35.3507 22.5948 35.3465 23.3218 35.3507 24.0489Z" fill="white"/>
<defs>
<filter id="filter0_d_54_1053" x="0" y="0" width="76" height="78" filterUnits="userSpaceOnUse" color-interpolation-filters="sRGB">
<feFlood flood-opacity="0" result="BackgroundImageFix"/>
<feColorMatrix in="SourceAlpha" type="matrix" values="0 0 0 0 0 0 0 0 0 0 0 0 0 0 0 0 0 0 127 0" result="hardAlpha"/>
<feOffset dy="12"/>
<feGaussianBlur stdDeviation="5"/>
<feColorMatrix type="matrix" values="0 0 0 0 0.0973605 0 0 0 0 0.0434774 0 0 0 0 0.165939 0 0 0 0.25 0"/>
<feBlend mode="normal" in2="BackgroundImageFix" result="effect1_dropShadow_54_1053"/>
<feBlend mode="normal" in="SourceGraphic" in2="effect1_dropShadow_54_1053" result="shape"/>
</filter>
</defs>
</svg>
