<svg width="37" height="22" viewBox="0 0 37 22" fill="none" xmlns="http://www.w3.org/2000/svg">
<g clip-path="url(#clip0_64_0)">
<path d="M29.0891 5.59653C21.8848 5.59653 14.8709 5.59653 7.85692 5.59653C5.60049 5.59653 6.08984 5.5691 6.60637 3.86835C6.95979 2.66137 6.9326 1.04291 7.88411 0.357128C8.83561 -0.328658 10.3308 0.165108 11.6086 0.137676C18.5953 0.110245 25.5549 0.137676 32.5417 0.137676C36.239 0.137676 37.7886 2.30476 36.7283 5.87084C35.6953 9.27234 34.6894 12.6738 33.6563 16.0753C32.4873 19.9157 29.7959 21.9182 25.7996 21.9182C18.0516 21.9182 10.3036 21.8908 2.58286 21.9457C1.38668 21.9457 1.16919 21.6165 1.60416 20.5467C1.95758 19.6688 2.25663 18.7362 2.41974 17.8035C2.61004 16.6514 3.20813 16.4319 4.26838 16.4594C11.0649 16.5142 17.8613 16.4594 24.6578 16.5142C25.6093 16.5142 25.9627 16.2125 26.2346 15.3073C27.0502 12.1526 28.056 8.99802 29.0891 5.59653Z" fill="white"/>
<path d="M6.93247 13.7988C4.9479 13.7988 2.96333 13.7439 0.978762 13.8262C-0.0543018 13.8536 -0.13586 13.5245 0.163185 12.6467C0.543788 11.5768 0.870018 10.4796 1.14188 9.38233C1.33218 8.58681 1.6856 8.3125 2.52836 8.3125C6.4975 8.36736 10.4666 8.36736 14.4358 8.3125C15.4417 8.3125 15.5776 8.58681 15.2514 9.46462C14.8436 10.5619 14.4902 11.714 14.2183 12.8661C14.028 13.6616 13.6202 13.8536 12.8862 13.8262C10.9016 13.7714 8.91704 13.7988 6.93247 13.7988Z" fill="white"/>
</g>
<defs>
<clipPath id="clip0_64_0">
<rect width="37" height="22" fill="white"/>
</clipPath>
</defs>
</svg>
