<svg xmlns="http://www.w3.org/2000/svg" width="43" height="43" viewBox="0 0 43 43" fill="none">
  <g filter="url(#filter0_d_47_33)">
    <circle cx="21.5" cy="17.5" r="16.5" stroke="#5FB2FF" stroke-width="2"/>
  </g>
  <path d="M27.25 13.6667H26.375V12.0476C26.375 9.82143 24.4062 8 22 8C19.5938 8 17.625 9.82143 17.625 12.0476V13.6667H16.75C15.7875 13.6667 15 14.3952 15 15.2857V23.381C15 24.2714 15.7875 25 16.75 25H27.25C28.2125 25 29 24.2714 29 23.381V15.2857C29 14.3952 28.2125 13.6667 27.25 13.6667ZM22 20.9524C21.0375 20.9524 20.25 20.2238 20.25 19.3333C20.25 18.4429 21.0375 17.7143 22 17.7143C22.9625 17.7143 23.75 18.4429 23.75 19.3333C23.75 20.2238 22.9625 20.9524 22 20.9524ZM24.7125 13.6667H19.2875V12.0476C19.2875 10.6714 20.5125 9.5381 22 9.5381C23.4875 9.5381 24.7125 10.6714 24.7125 12.0476V13.6667Z" fill="white"/>
  <defs>
    <filter id="filter0_d_47_33" x="0" y="0" width="43" height="43" filterUnits="userSpaceOnUse" color-interpolation-filters="sRGB">
      <feFlood flood-opacity="0" result="BackgroundImageFix"/>
      <feColorMatrix in="SourceAlpha" type="matrix" values="0 0 0 0 0 0 0 0 0 0 0 0 0 0 0 0 0 0 127 0" result="hardAlpha"/>
      <feOffset dy="4"/>
      <feGaussianBlur stdDeviation="2"/>
      <feColorMatrix type="matrix" values="0 0 0 0 0 0 0 0 0 0 0 0 0 0 0 0 0 0 0.15 0"/>
      <feBlend mode="normal" in2="BackgroundImageFix" result="effect1_dropShadow_47_33"/>
      <feBlend mode="normal" in="SourceGraphic" in2="effect1_dropShadow_47_33" result="shape"/>
    </filter>
  </defs>
</svg>