<svg width="35" height="15" viewBox="0 0 35 15" fill="none" xmlns="http://www.w3.org/2000/svg">
<g clip-path="url(#clip0_66_138)">
<path d="M12.4347 0.0336648C13.8916 0.0336648 14.8403 0.954119 14.8742 2.31776C14.9758 4.67003 15.2808 4.97685 17.6186 5.11321C18.94 5.18139 19.8548 6.10185 19.8887 7.36321C19.9226 8.79503 19.1433 9.78366 17.8219 9.95412C16.5005 10.0905 15.3824 9.30639 15.1453 7.97685C15.0775 7.56776 15.0775 7.15866 15.0097 6.71548C14.8742 5.69276 14.3321 5.11321 13.3156 4.97685C13.214 4.97685 13.0785 4.94276 12.9768 4.94276C10.7745 4.73821 10.0291 5.35185 9.85968 7.56776C9.72415 9.03366 8.80934 9.92003 7.45406 9.95412C6.16655 9.98821 5.08233 8.96548 5.04845 7.67003C4.98069 6.2723 5.8955 5.21548 7.25077 5.11321C7.52183 5.07912 7.79288 5.07912 8.06394 5.04503C9.65639 4.80639 9.96133 4.3973 10.063 2.79503C10.0969 2.1473 10.334 1.43139 10.6728 0.851847C11.0455 0.23821 11.7571 -0.034517 12.4347 0.0336648Z" fill="white"/>
<path d="M35.0002 2.42069C35.0002 3.81842 34.1532 4.77296 32.6624 4.84114C30.6633 4.90933 30.1212 5.42069 29.9518 7.60251C29.8502 9.03433 28.9015 9.85251 27.4784 9.8866C25.6827 9.95478 25.0728 10.5684 24.9712 12.3752C24.9034 13.7389 24.0564 14.7957 22.8705 14.9321C21.5491 15.0684 20.4988 14.3184 20.16 12.9889C19.855 11.7957 20.7359 10.4321 21.9218 10.1934C22.3623 10.0911 22.8366 10.0911 23.311 10.0571C24.5985 9.95478 25.1406 9.37524 25.1406 8.07978C25.1406 7.2616 25.1067 6.44342 25.7843 5.89796C26.2248 5.55705 26.8008 5.35251 27.3429 5.11387C27.4446 5.04569 27.614 5.11387 27.7495 5.07978C29.6469 4.97751 30.1212 4.53433 30.1551 2.62524C30.189 0.238871 32.3236 -0.442947 33.6788 0.238872C34.5598 0.682053 35.0002 1.43205 35.0002 2.42069Z" fill="white"/>
<path d="M2.40561 15C1.05034 15 0 13.9091 0 12.5455C0 11.2159 1.08422 10.125 2.4395 10.125C3.79477 10.125 4.84511 11.2159 4.84511 12.5795C4.84511 13.9091 3.76089 15 2.40561 15Z" fill="white"/>
</g>
<defs>
<clipPath id="clip0_66_138">
<rect width="35" height="15" fill="white"/>
</clipPath>
</defs>
</svg>
