<svg width="35" height="19" viewBox="0 0 35 19" fill="none" xmlns="http://www.w3.org/2000/svg">
<path d="M12.2678 8.05698C12.0498 8.51457 11.9111 8.83289 11.7724 9.15122C10.4841 12.1952 9.19592 15.2392 7.86806 18.2832C7.74915 18.5617 7.41223 18.9596 7.17441 18.9596C4.85561 18.9994 2.51699 18.9795 0 18.9795C0.138732 18.5617 0.218007 18.2633 0.33692 17.9847C2.73499 12.3345 5.15289 6.66431 7.53114 0.994152C7.82843 0.277921 8.18516 -0.0404031 8.99774 -0.000612525C10.8805 0.0590733 12.7633 0.039178 14.6461 -0.000612525C15.3199 -0.0205078 15.6965 0.19834 16.0334 0.815094C17.9162 4.31666 19.8584 7.77844 21.8601 11.4193C22.098 10.9816 22.2763 10.6633 22.4547 10.325C24.0006 7.1418 25.5464 3.95855 27.0527 0.755408C27.3103 0.19834 27.6472 -0.0205078 28.2616 -0.0205078C30.4615 0.0192828 32.6614 -0.000612525 35 -0.000612525C34.8811 0.377398 34.8216 0.616141 34.7225 0.834989C31.9479 6.58473 29.1733 12.3345 26.4185 18.0842C26.1014 18.7407 25.7248 18.9994 24.9915 18.9795C23.1087 18.9198 21.2259 18.9198 19.3431 18.9795C18.6297 18.9994 18.2135 18.7805 17.8766 18.124C16.2118 15.08 14.4875 12.0161 12.7831 8.95227C12.6444 8.69363 12.5057 8.45488 12.2678 8.05698Z" fill="white"/>
</svg>
