<svg width="29" height="34" viewBox="0 0 29 34" fill="none" xmlns="http://www.w3.org/2000/svg">
<path d="M22.149 33.9996C24.6528 21.1694 19.5902 12.523 8.77714 6.861C12.1889 9.51071 15.188 12.5788 17.2515 16.4836C19.4527 20.6116 20.4982 24.9069 19.1775 29.5927C18.0494 33.637 16.6462 34.5017 12.6016 33.637C5.64051 32.1309 0.550383 26.2736 0.275241 19.0497C0.0551268 13.1645 0.110155 7.25148 9.83179e-05 1.36633C-0.0274159 0.306448 0.302755 -0.0561445 1.43084 -0.000361037C7.97922 0.278556 14.1974 1.67314 19.8103 5.15961C24.2126 7.92088 27.5143 11.6584 28.5874 16.9299C29.853 23.1777 28.3122 28.6723 23.5248 33.0234C23.2221 33.3023 22.8094 33.5255 22.149 33.9996Z" fill="white"/>
</svg>
